<svg width="30" height="16" viewBox="0 0 30 16" fill="none" xmlns="http://www.w3.org/2000/svg">
<path d="M23.0143 1.23422H23.5785C24.7503 1.23455 25.8816 1.66277 26.76 2.43841C27.6383 3.21406 28.2032 4.28375 28.3485 5.44652L28.9753 10.4538C29.0316 10.9049 28.9914 11.3628 28.8573 11.7972C28.7231 12.2315 28.4982 12.6324 28.1973 12.9732C27.8964 13.3139 27.5264 13.5868 27.112 13.7737C26.6976 13.9605 26.2482 14.0571 25.7936 14.057H4.2064C3.7518 14.0571 3.30238 13.9605 2.88797 13.7737C2.47355 13.5868 2.10362 13.3139 1.80273 12.9732C1.50183 12.6324 1.27685 12.2315 1.14272 11.7972C1.00859 11.3628 0.968371 10.9049 1.02474 10.4538L1.64985 5.44652C1.79523 4.2832 2.36058 3.21307 3.23961 2.43735C4.11864 1.66163 5.25078 1.23377 6.42314 1.23422H6.98574" stroke="#1C1C1E" stroke-width="2" stroke-linecap="round" stroke-linejoin="round"/>
</svg>
